<svg xmlns="http://www.w3.org/2000/svg" version="1.1" xmlns:xlink="http://www.w3.org/1999/xlink" xmlns:svgjs="http://svgjs.dev/svgjs" width="1000" height="1000" viewBox="0 0 1000 1000"><rect width="1000" height="1000" fill="#001f3f"></rect><g transform="matrix(0.7,0,0,0.7,150.96082768787312,24)"><svg viewBox="0 0 147 200" data-background-color="#001f3f" preserveAspectRatio="xMidYMid meet" height="1360" width="1000" xmlns="http://www.w3.org/2000/svg" xmlns:xlink="http://www.w3.org/1999/xlink"><g id="tight-bounds" transform="matrix(1,0,0,1,-0.20177381445336096,0)"><svg viewBox="0 0 147.40354762890672 200" height="200" width="147.40354762890672"><g><svg viewBox="0 0 397.4975999999999 539.3324738705926" height="200" width="147.40354762890672"><g><rect width="397.4975999999999" height="7.010988064204422" x="0" y="348.7631999056511" fill="#ffd43b" opacity="1" stroke-width="0" stroke="transparent" fill-opacity="1" class="rect-r$-0" data-fill-palette-color="primary" rx="1%" id="r$-0" data-palette-color="#ffd43b"></rect></g><g transform="matrix(1,0,0,1,0.9887999999999693,374.1275598656786)"><svg viewBox="0 0 395.52 165.204914004914" height="165.204914004914" width="395.52"><g id="textblocktransform"><svg viewBox="0 0 395.52 165.204914004914" height="165.204914004914" width="395.52" id="textblock"><g><svg viewBox="0 0 395.52 165.204914004914" height="165.204914004914" width="395.52"><g transform="matrix(1,0,0,1,0,0)"><svg width="395.52" viewBox="61.25 -37.99999999999999 244.2 100.44999999999999" height="165.204914004914" data-palette-color="#ffd43b"><svg></svg><svg></svg><g class="wordmark-text-0" data-fill-palette-color="primary" id="text-0"><path transform="translate(58.05,0)" d="M13.9 0.3v0c-1.933 0-3.717-0.36-5.35-1.08-1.633-0.713-2.933-1.87-3.9-3.47-0.967-1.6-1.45-3.717-1.45-6.35v0-15.05c0-2.633 0.49-4.75 1.47-6.35 0.987-1.6 2.297-2.76 3.93-3.48 1.633-0.713 3.417-1.07 5.35-1.07v0c2.267 0 4.2 0.383 5.8 1.15 1.6 0.767 2.833 1.81 3.7 3.13 0.867 1.313 1.3 2.787 1.3 4.42v0c0 0.933-0.173 1.55-0.52 1.85-0.353 0.3-0.88 0.45-1.58 0.45v0c-0.667 0-1.173-0.133-1.52-0.4-0.353-0.267-0.547-0.617-0.58-1.05v0c-0.033-0.5-0.123-1.077-0.27-1.73-0.153-0.647-0.453-1.28-0.9-1.9-0.453-0.613-1.103-1.12-1.95-1.52-0.853-0.4-1.98-0.6-3.38-0.6v0c-2.133 0-3.773 0.573-4.92 1.72-1.153 1.153-1.73 2.947-1.73 5.38v0 15.05c0 2.433 0.583 4.223 1.75 5.37 1.167 1.153 2.85 1.73 5.05 1.73v0c1.4 0 2.51-0.2 3.33-0.6 0.813-0.4 1.42-0.9 1.82-1.5 0.4-0.6 0.683-1.243 0.85-1.93 0.167-0.68 0.283-1.32 0.35-1.92v0c0.033-0.5 0.233-0.867 0.6-1.1 0.367-0.233 0.867-0.35 1.5-0.35v0c0.7 0 1.227 0.157 1.58 0.47 0.347 0.32 0.52 0.947 0.52 1.88v0c0 1.633-0.44 3.123-1.32 4.47-0.887 1.353-2.137 2.42-3.75 3.2-1.62 0.787-3.547 1.18-5.78 1.18zM38.5 0.4v0c-1.767 0-3.4-0.46-4.9-1.38-1.5-0.913-2.7-2.103-3.6-3.57-0.9-1.467-1.35-3.05-1.35-4.75v0-5.1c0-1.7 0.443-3.277 1.33-4.73 0.88-1.447 2.07-2.62 3.57-3.52 1.5-0.9 3.15-1.35 4.95-1.35v0c1.767 0 3.4 0.44 4.9 1.32 1.5 0.887 2.71 2.047 3.63 3.48 0.913 1.433 1.37 3.033 1.37 4.8v0 5.1c0 1.667-0.457 3.24-1.37 4.72-0.92 1.487-2.13 2.687-3.63 3.6-1.5 0.92-3.133 1.38-4.9 1.38zM38.5-3.35v0c1.067 0 2.027-0.283 2.88-0.85 0.847-0.567 1.537-1.31 2.07-2.23 0.533-0.913 0.8-1.87 0.8-2.87v0-5.1c0-0.967-0.257-1.9-0.77-2.8-0.52-0.9-1.213-1.633-2.08-2.2-0.867-0.567-1.833-0.85-2.9-0.85v0c-1.067 0-2.033 0.283-2.9 0.85-0.867 0.567-1.55 1.3-2.05 2.2-0.5 0.9-0.75 1.833-0.75 2.8v0 5.1c0 1 0.25 1.957 0.75 2.87 0.5 0.92 1.183 1.663 2.05 2.23 0.867 0.567 1.833 0.85 2.9 0.85zM62.35 0.4v0c-1.767 0-3.4-0.46-4.9-1.38-1.5-0.913-2.7-2.103-3.6-3.57-0.9-1.467-1.35-3.05-1.35-4.75v0-5.1c0-1.7 0.443-3.277 1.33-4.73 0.88-1.447 2.07-2.62 3.57-3.52 1.5-0.9 3.15-1.35 4.95-1.35v0c1.767 0 3.4 0.44 4.9 1.32 1.5 0.887 2.71 2.047 3.63 3.48 0.913 1.433 1.37 3.033 1.37 4.8v0 5.1c0 1.667-0.457 3.24-1.37 4.72-0.92 1.487-2.13 2.687-3.63 3.6-1.5 0.92-3.133 1.38-4.9 1.38zM62.35-3.35v0c1.067 0 2.027-0.283 2.88-0.85 0.847-0.567 1.537-1.31 2.07-2.23 0.533-0.913 0.8-1.87 0.8-2.87v0-5.1c0-0.967-0.257-1.9-0.77-2.8-0.52-0.9-1.213-1.633-2.08-2.2-0.867-0.567-1.833-0.85-2.9-0.85v0c-1.067 0-2.033 0.283-2.9 0.85-0.867 0.567-1.55 1.3-2.05 2.2-0.5 0.9-0.75 1.833-0.75 2.8v0 5.1c0 1 0.25 1.957 0.75 2.87 0.5 0.92 1.183 1.663 2.05 2.23 0.867 0.567 1.833 0.85 2.9 0.85zM79.3 0v0c-0.567 0-1.04-0.16-1.42-0.48-0.387-0.313-0.58-0.653-0.58-1.02v0-35.05c0-0.433 0.193-0.783 0.58-1.05 0.38-0.267 0.853-0.4 1.42-0.4v0c0.6 0 1.11 0.133 1.53 0.4 0.413 0.267 0.62 0.617 0.62 1.05v0 23.4l11.4-10.3c0.3-0.233 0.6-0.35 0.9-0.35v0c0.333 0 0.66 0.09 0.98 0.27 0.313 0.187 0.58 0.43 0.8 0.73 0.213 0.3 0.32 0.617 0.32 0.95v0c0 0.167-0.033 0.34-0.1 0.52-0.067 0.187-0.183 0.347-0.35 0.48v0l-6.95 6.15 8.3 12.05c0.167 0.233 0.25 0.483 0.25 0.75v0c0 0.333-0.117 0.667-0.35 1-0.233 0.333-0.523 0.6-0.87 0.8-0.353 0.2-0.713 0.3-1.08 0.3v0c-0.467 0-0.85-0.217-1.15-0.65v0l-7.95-11.65-4.15 3.7v6.9c0 0.367-0.207 0.707-0.62 1.02-0.42 0.32-0.93 0.48-1.53 0.48zM102.6 0v0c-0.6 0-1.09-0.16-1.47-0.48-0.387-0.313-0.58-0.653-0.58-1.02v0-20.75c0-0.433 0.193-0.783 0.58-1.05 0.38-0.267 0.87-0.4 1.47-0.4v0c0.567 0 1.06 0.133 1.48 0.4 0.413 0.267 0.62 0.617 0.62 1.05v0 20.75c0 0.367-0.207 0.707-0.62 1.02-0.42 0.32-0.913 0.48-1.48 0.48zM102.6-30.2v0c-0.733 0-1.35-0.243-1.85-0.73-0.5-0.48-0.75-1.037-0.75-1.67v0c0-0.633 0.25-1.183 0.75-1.65 0.5-0.467 1.117-0.7 1.85-0.7v0c0.7 0 1.3 0.233 1.8 0.7 0.5 0.467 0.75 1.017 0.75 1.65v0c0 0.633-0.25 1.19-0.75 1.67-0.5 0.487-1.1 0.73-1.8 0.73zM120.8 0.4v0c-2.167 0-4.083-0.41-5.75-1.23-1.667-0.813-2.983-1.947-3.95-3.4-0.967-1.447-1.45-3.137-1.45-5.07v0-5.25c0-1.7 0.46-3.267 1.38-4.7 0.913-1.433 2.12-2.583 3.62-3.45 1.5-0.867 3.15-1.3 4.95-1.3v0c1.733 0 3.327 0.4 4.78 1.2 1.447 0.8 2.613 1.883 3.5 3.25 0.88 1.367 1.32 2.95 1.32 4.75v0c0 1.333-0.217 2.29-0.65 2.87-0.433 0.587-0.983 0.947-1.65 1.08-0.667 0.133-1.367 0.2-2.1 0.2v0h-11v1.5c0 1.867 0.667 3.34 2 4.42 1.333 1.087 3.05 1.63 5.15 1.63v0c1.233 0 2.217-0.167 2.95-0.5 0.733-0.333 1.333-0.66 1.8-0.98 0.467-0.313 0.883-0.47 1.25-0.47v0c0.367 0 0.677 0.107 0.93 0.32 0.247 0.22 0.437 0.48 0.57 0.78 0.133 0.3 0.2 0.567 0.2 0.8v0c0 0.433-0.317 0.923-0.95 1.47-0.633 0.553-1.54 1.037-2.72 1.45-1.187 0.42-2.58 0.63-4.18 0.63zM113.8-15.25v1.8h9.25c0.9 0 1.493-0.11 1.78-0.33 0.28-0.213 0.42-0.637 0.42-1.27v0c0-1-0.24-1.923-0.72-2.77-0.487-0.853-1.163-1.547-2.03-2.08-0.867-0.533-1.85-0.8-2.95-0.8v0c-1.033 0-1.983 0.24-2.85 0.72-0.867 0.487-1.567 1.147-2.1 1.98-0.533 0.833-0.8 1.75-0.8 2.75zM143 0.4v0c-2.3 0-4.19-0.433-5.67-1.3-1.487-0.867-2.587-2.027-3.3-3.48-0.72-1.447-1.08-3.087-1.08-4.92v0-5c0-1.8 0.36-3.433 1.08-4.9 0.713-1.467 1.813-2.633 3.3-3.5 1.48-0.867 3.353-1.3 5.62-1.3v0c1.467 0 2.75 0.183 3.85 0.55 1.1 0.367 1.95 0.817 2.55 1.35 0.6 0.533 0.9 1.05 0.9 1.55v0c0 0.267-0.073 0.557-0.22 0.87-0.153 0.32-0.353 0.597-0.6 0.83-0.253 0.233-0.547 0.35-0.88 0.35v0c-0.333 0-0.69-0.15-1.07-0.45-0.387-0.3-0.903-0.593-1.55-0.88-0.653-0.28-1.563-0.42-2.73-0.42v0c-2.033 0-3.557 0.533-4.57 1.6-1.02 1.067-1.53 2.517-1.53 4.35v0 5c0 1.833 0.51 3.283 1.53 4.35 1.013 1.067 2.553 1.6 4.62 1.6v0c1.2 0 2.133-0.16 2.8-0.48 0.667-0.313 1.193-0.613 1.58-0.9 0.38-0.28 0.753-0.42 1.12-0.42v0c0.367 0 0.683 0.107 0.95 0.32 0.267 0.22 0.477 0.48 0.63 0.78 0.147 0.3 0.22 0.6 0.22 0.9v0c0 0.5-0.317 1.023-0.95 1.57-0.633 0.553-1.517 1.02-2.65 1.4-1.133 0.387-2.45 0.58-3.95 0.58zM164.4 0.4v0c-1.833 0-3.5-0.45-5-1.35-1.5-0.9-2.7-2.083-3.6-3.55-0.9-1.467-1.35-3.033-1.35-4.7v0-13c0-0.367 0.21-0.71 0.63-1.03 0.413-0.313 0.903-0.47 1.47-0.47v0c0.567 0 1.05 0.157 1.45 0.47 0.4 0.32 0.6 0.663 0.6 1.03v0 13c0 0.967 0.26 1.9 0.78 2.8 0.513 0.9 1.203 1.633 2.07 2.2 0.867 0.567 1.833 0.85 2.9 0.85v0c1.067 0 2.033-0.283 2.9-0.85 0.867-0.567 1.55-1.3 2.05-2.2 0.5-0.9 0.75-1.833 0.75-2.8v0-13.05c0-0.4 0.217-0.743 0.65-1.03 0.433-0.28 0.917-0.42 1.45-0.42v0c0.633 0 1.133 0.14 1.5 0.42 0.367 0.287 0.55 0.63 0.55 1.03v0 13.05c0 1.7-0.44 3.273-1.32 4.72-0.887 1.453-2.08 2.63-3.58 3.53-1.5 0.9-3.133 1.35-4.9 1.35zM189.65 0h-1.55c-2.7 0-4.757-0.6-6.17-1.8-1.42-1.2-2.13-3.117-2.13-5.75v0-25.75c0-0.433 0.217-0.783 0.65-1.05 0.433-0.267 0.9-0.4 1.4-0.4v0c0.533 0 1.017 0.133 1.45 0.4 0.433 0.267 0.65 0.617 0.65 1.05v0 9.6h6.3c0.4 0 0.71 0.167 0.93 0.5 0.213 0.333 0.32 0.717 0.32 1.15v0c0 0.433-0.107 0.807-0.32 1.12-0.22 0.32-0.53 0.48-0.93 0.48v0h-6.3v12.9c0 1.433 0.31 2.44 0.93 3.02 0.613 0.587 1.687 0.88 3.22 0.88v0h1.55c0.6 0 1.05 0.183 1.35 0.55 0.3 0.367 0.45 0.783 0.45 1.25v0c0 0.467-0.15 0.89-0.45 1.27-0.3 0.387-0.75 0.58-1.35 0.58zM205.1 0h-1.55c-2.7 0-4.757-0.6-6.17-1.8-1.42-1.2-2.13-3.117-2.13-5.75v0-25.75c0-0.433 0.217-0.783 0.65-1.05 0.433-0.267 0.9-0.4 1.4-0.4v0c0.533 0 1.017 0.133 1.45 0.4 0.433 0.267 0.65 0.617 0.65 1.05v0 9.6h6.3c0.4 0 0.71 0.167 0.93 0.5 0.213 0.333 0.32 0.717 0.32 1.15v0c0 0.433-0.107 0.807-0.32 1.12-0.22 0.32-0.53 0.48-0.93 0.48v0h-6.3v12.9c0 1.433 0.31 2.44 0.93 3.02 0.613 0.587 1.687 0.88 3.22 0.88v0h1.55c0.6 0 1.05 0.183 1.35 0.55 0.3 0.367 0.45 0.783 0.45 1.25v0c0 0.467-0.15 0.89-0.45 1.27-0.3 0.387-0.75 0.58-1.35 0.58zM220.6 0.4v0c-2.167 0-4.083-0.41-5.75-1.23-1.667-0.813-2.983-1.947-3.95-3.4-0.967-1.447-1.45-3.137-1.45-5.07v0-5.25c0-1.7 0.46-3.267 1.38-4.7 0.913-1.433 2.12-2.583 3.62-3.45 1.5-0.867 3.15-1.3 4.95-1.3v0c1.733 0 3.327 0.4 4.78 1.2 1.447 0.8 2.613 1.883 3.5 3.25 0.88 1.367 1.32 2.95 1.32 4.75v0c0 1.333-0.217 2.29-0.65 2.87-0.433 0.587-0.983 0.947-1.65 1.08-0.667 0.133-1.367 0.2-2.1 0.2v0h-11v1.5c0 1.867 0.667 3.34 2 4.42 1.333 1.087 3.05 1.63 5.15 1.63v0c1.233 0 2.217-0.167 2.95-0.5 0.733-0.333 1.333-0.66 1.8-0.98 0.467-0.313 0.883-0.47 1.25-0.47v0c0.367 0 0.677 0.107 0.93 0.32 0.247 0.22 0.437 0.48 0.57 0.78 0.133 0.3 0.2 0.567 0.2 0.8v0c0 0.433-0.317 0.923-0.95 1.47-0.633 0.553-1.54 1.037-2.72 1.45-1.187 0.42-2.58 0.63-4.18 0.63zM213.6-15.25v1.8h9.25c0.9 0 1.493-0.11 1.78-0.33 0.28-0.213 0.42-0.637 0.42-1.27v0c0-1-0.24-1.923-0.72-2.77-0.487-0.853-1.163-1.547-2.03-2.08-0.867-0.533-1.85-0.8-2.95-0.8v0c-1.033 0-1.983 0.24-2.85 0.72-0.867 0.487-1.567 1.147-2.1 1.98-0.533 0.833-0.8 1.75-0.8 2.75zM235.6 0v0c-0.567 0-1.04-0.16-1.42-0.48-0.387-0.313-0.58-0.653-0.58-1.02v0-20.75c0-0.433 0.193-0.783 0.58-1.05 0.38-0.267 0.853-0.4 1.42-0.4v0c0.567 0 1.033 0.133 1.4 0.4 0.367 0.267 0.55 0.617 0.55 1.05v0 2.35c0.367-0.7 0.867-1.36 1.5-1.98 0.633-0.613 1.377-1.12 2.23-1.52 0.847-0.4 1.787-0.6 2.82-0.6v0h1.7c0.433 0 0.81 0.183 1.13 0.55 0.313 0.367 0.47 0.817 0.47 1.35v0c0 0.5-0.157 0.933-0.47 1.3-0.32 0.367-0.697 0.55-1.13 0.55v0h-1.7c-1.067 0-2.083 0.3-3.05 0.9-0.967 0.6-1.757 1.443-2.37 2.53-0.62 1.08-0.93 2.387-0.93 3.92v0 11.4c0 0.367-0.207 0.707-0.62 1.02-0.42 0.32-0.93 0.48-1.53 0.48z" fill="#ffd43b" fill-rule="nonzero" stroke="none" stroke-width="1" stroke-linecap="butt" stroke-linejoin="miter" stroke-miterlimit="10" stroke-dasharray="" stroke-dashoffset="0" font-family="none" font-weight="none" font-size="none" text-anchor="none" style="mix-blend-mode: normal" data-fill-palette-color="primary" opacity="1"></path><path transform="translate(90.08,51)" d="M5.65 0v0c-0.5 0-0.973-0.127-1.42-0.38-0.453-0.247-0.68-0.62-0.68-1.12v0-33.6c0-0.4 0.16-0.733 0.48-1 0.313-0.267 0.72-0.417 1.22-0.45v0h9.45c2 0 3.8 0.357 5.4 1.07 1.6 0.72 2.867 1.863 3.8 3.43 0.933 1.567 1.4 3.667 1.4 6.3v0 0.45c0 2.6-0.473 4.7-1.42 6.3-0.953 1.6-2.247 2.757-3.88 3.47-1.633 0.72-3.467 1.08-5.5 1.08v0h-6.75v12.95c0 0.5-0.217 0.873-0.65 1.12-0.433 0.253-0.917 0.38-1.45 0.38zM7.75-32.75v14.8h6.75c2.067 0 3.683-0.583 4.85-1.75 1.167-1.167 1.75-2.95 1.75-5.35v0-0.6c0-2.433-0.583-4.227-1.75-5.38-1.167-1.147-2.783-1.72-4.85-1.72v0zM29.25 11.45v0c-0.533 0-0.983-0.123-1.35-0.37-0.367-0.253-0.55-0.747-0.55-1.48v0c0-0.467 0.093-0.883 0.28-1.25 0.18-0.367 0.487-0.55 0.92-0.55v0c0.733 0 1.467-0.207 2.2-0.62 0.733-0.42 1.443-1.037 2.13-1.85 0.68-0.82 1.27-1.78 1.77-2.88 0.5-1.1 0.867-2.317 1.1-3.65v0l-8.3-20.25c-0.1-0.2-0.15-0.383-0.15-0.55v0c0-0.367 0.15-0.7 0.45-1 0.3-0.3 0.657-0.543 1.07-0.73 0.42-0.18 0.813-0.27 1.18-0.27v0c0.267 0 0.533 0.067 0.8 0.2 0.267 0.133 0.433 0.35 0.5 0.65v0l6.65 17.4 5.95-17.4c0.1-0.3 0.273-0.517 0.52-0.65 0.253-0.133 0.513-0.2 0.78-0.2v0c0.333 0 0.71 0.09 1.13 0.27 0.413 0.187 0.77 0.43 1.07 0.73 0.3 0.3 0.45 0.65 0.45 1.05v0c0 0.2-0.033 0.367-0.1 0.5v0l-7.65 20.35c-0.5 1.367-1.033 2.783-1.6 4.25-0.567 1.467-1.24 2.827-2.02 4.08-0.787 1.247-1.763 2.263-2.93 3.05-1.167 0.78-2.6 1.17-4.3 1.17zM54.15 0v0c-0.5 0-0.973-0.127-1.42-0.38-0.453-0.247-0.68-0.62-0.68-1.12v0-33.6c0-0.4 0.157-0.733 0.47-1 0.32-0.267 0.73-0.417 1.23-0.45v0h9.45c2 0 3.8 0.357 5.4 1.07 1.6 0.72 2.867 1.863 3.8 3.43 0.933 1.567 1.4 3.667 1.4 6.3v0 0.45c0 2.6-0.473 4.7-1.42 6.3-0.953 1.6-2.247 2.757-3.88 3.47-1.633 0.72-3.467 1.08-5.5 1.08v0h-6.75v12.95c0 0.5-0.217 0.873-0.65 1.12-0.433 0.253-0.917 0.38-1.45 0.38zM56.25-32.75v14.8h6.75c2.067 0 3.683-0.583 4.85-1.75 1.167-1.167 1.75-2.95 1.75-5.35v0-0.6c0-2.433-0.583-4.227-1.75-5.38-1.167-1.147-2.783-1.72-4.85-1.72v0zM79.8 0v0c-0.567 0-1.04-0.16-1.42-0.48-0.387-0.313-0.58-0.653-0.58-1.02v0-20.75c0-0.433 0.193-0.783 0.58-1.05 0.38-0.267 0.853-0.4 1.42-0.4v0c0.567 0 1.033 0.133 1.4 0.4 0.367 0.267 0.55 0.617 0.55 1.05v0 2.35c0.367-0.7 0.867-1.36 1.5-1.98 0.633-0.613 1.373-1.12 2.22-1.52 0.853-0.4 1.797-0.6 2.83-0.6v0h1.7c0.433 0 0.81 0.183 1.13 0.55 0.313 0.367 0.47 0.817 0.47 1.35v0c0 0.5-0.157 0.933-0.47 1.3-0.32 0.367-0.697 0.55-1.13 0.55v0h-1.7c-1.067 0-2.083 0.3-3.05 0.9-0.967 0.6-1.757 1.443-2.37 2.53-0.62 1.08-0.93 2.387-0.93 3.92v0 11.4c0 0.367-0.21 0.707-0.63 1.02-0.413 0.32-0.92 0.48-1.52 0.48zM102.95 0.4v0c-1.767 0-3.4-0.46-4.9-1.38-1.5-0.913-2.7-2.103-3.6-3.57-0.9-1.467-1.35-3.05-1.35-4.75v0-5.1c0-1.7 0.44-3.277 1.32-4.73 0.887-1.447 2.08-2.62 3.58-3.52 1.5-0.9 3.15-1.35 4.95-1.35v0c1.767 0 3.4 0.44 4.9 1.32 1.5 0.887 2.707 2.047 3.62 3.48 0.92 1.433 1.38 3.033 1.38 4.8v0 5.1c0 1.667-0.46 3.24-1.38 4.72-0.913 1.487-2.12 2.687-3.62 3.6-1.5 0.92-3.133 1.38-4.9 1.38zM102.95-3.35v0c1.067 0 2.023-0.283 2.87-0.85 0.853-0.567 1.547-1.31 2.08-2.23 0.533-0.913 0.8-1.87 0.8-2.87v0-5.1c0-0.967-0.26-1.9-0.78-2.8-0.513-0.9-1.203-1.633-2.07-2.2-0.867-0.567-1.833-0.85-2.9-0.85v0c-1.067 0-2.033 0.283-2.9 0.85-0.867 0.567-1.55 1.3-2.05 2.2-0.5 0.9-0.75 1.833-0.75 2.8v0 5.1c0 1 0.25 1.957 0.75 2.87 0.5 0.92 1.183 1.663 2.05 2.23 0.867 0.567 1.833 0.85 2.9 0.85zM115.2 11.45v0c-0.8 0-1.367-0.19-1.7-0.57-0.333-0.387-0.5-0.797-0.5-1.23v0c0-0.567 0.173-1.017 0.52-1.35 0.353-0.333 0.747-0.5 1.18-0.5v0c0.967 0 1.673-0.25 2.12-0.75 0.453-0.5 0.737-1.19 0.85-2.07 0.12-0.887 0.18-1.88 0.18-2.98v0-24.25c0-0.433 0.2-0.783 0.6-1.05 0.4-0.267 0.883-0.4 1.45-0.4v0c0.6 0 1.1 0.133 1.5 0.4 0.4 0.267 0.6 0.617 0.6 1.05v0 24.25c0 1.833-0.233 3.467-0.7 4.9-0.467 1.433-1.2 2.55-2.2 3.35-1 0.8-2.3 1.2-3.9 1.2zM119.9-30.2v0c-0.7 0-1.31-0.243-1.83-0.73-0.513-0.48-0.77-1.037-0.77-1.67v0c0-0.633 0.257-1.183 0.77-1.65 0.52-0.467 1.13-0.7 1.83-0.7v0c0.733 0 1.34 0.233 1.82 0.7 0.487 0.467 0.73 1.017 0.73 1.65v0c0 0.633-0.243 1.19-0.73 1.67-0.48 0.487-1.087 0.73-1.82 0.73zM138.2 0.4v0c-2.167 0-4.083-0.41-5.75-1.23-1.667-0.813-2.983-1.947-3.95-3.4-0.967-1.447-1.45-3.137-1.45-5.07v0-5.25c0-1.7 0.457-3.267 1.37-4.7 0.92-1.433 2.13-2.583 3.63-3.45 1.5-0.867 3.15-1.3 4.95-1.3v0c1.733 0 3.323 0.4 4.77 1.2 1.453 0.8 2.62 1.883 3.5 3.25 0.887 1.367 1.33 2.95 1.33 4.75v0c0 1.333-0.217 2.29-0.65 2.87-0.433 0.587-0.983 0.947-1.65 1.08-0.667 0.133-1.367 0.2-2.1 0.2v0h-11v1.5c0 1.867 0.667 3.34 2 4.42 1.333 1.087 3.05 1.63 5.15 1.63v0c1.233 0 2.217-0.167 2.95-0.5 0.733-0.333 1.333-0.66 1.8-0.98 0.467-0.313 0.883-0.47 1.25-0.47v0c0.367 0 0.673 0.107 0.92 0.32 0.253 0.22 0.447 0.48 0.58 0.78 0.133 0.3 0.2 0.567 0.2 0.8v0c0 0.433-0.317 0.923-0.95 1.47-0.633 0.553-1.543 1.037-2.73 1.45-1.18 0.42-2.57 0.63-4.17 0.63zM131.2-15.25v1.8h9.25c0.9 0 1.49-0.11 1.77-0.33 0.287-0.213 0.43-0.637 0.43-1.27v0c0-1-0.243-1.923-0.73-2.77-0.48-0.853-1.153-1.547-2.02-2.08-0.867-0.533-1.85-0.8-2.95-0.8v0c-1.033 0-1.983 0.24-2.85 0.72-0.867 0.487-1.567 1.147-2.1 1.98-0.533 0.833-0.8 1.75-0.8 2.75zM160.4 0.4v0c-2.3 0-4.193-0.433-5.68-1.3-1.48-0.867-2.58-2.027-3.3-3.48-0.713-1.447-1.07-3.087-1.07-4.92v0-5c0-1.8 0.357-3.433 1.07-4.9 0.72-1.467 1.82-2.633 3.3-3.5 1.487-0.867 3.363-1.3 5.63-1.3v0c1.467 0 2.75 0.183 3.85 0.55 1.1 0.367 1.95 0.817 2.55 1.35 0.6 0.533 0.9 1.05 0.9 1.55v0c0 0.267-0.077 0.557-0.23 0.87-0.147 0.32-0.347 0.597-0.6 0.83-0.247 0.233-0.537 0.35-0.87 0.35v0c-0.333 0-0.693-0.15-1.08-0.45-0.38-0.3-0.897-0.593-1.55-0.88-0.647-0.28-1.553-0.42-2.72-0.42v0c-2.033 0-3.56 0.533-4.58 1.6-1.013 1.067-1.52 2.517-1.52 4.35v0 5c0 1.833 0.507 3.283 1.52 4.35 1.02 1.067 2.563 1.6 4.63 1.6v0c1.2 0 2.133-0.16 2.8-0.48 0.667-0.313 1.19-0.613 1.57-0.9 0.387-0.28 0.763-0.42 1.13-0.42v0c0.367 0 0.683 0.107 0.95 0.32 0.267 0.22 0.473 0.48 0.62 0.78 0.153 0.3 0.23 0.6 0.23 0.9v0c0 0.5-0.317 1.023-0.95 1.57-0.633 0.553-1.517 1.02-2.65 1.4-1.133 0.387-2.45 0.58-3.95 0.58zM181.85 0h-1.55c-2.7 0-4.76-0.6-6.18-1.8-1.413-1.2-2.12-3.117-2.12-5.75v0-25.75c0-0.433 0.217-0.783 0.65-1.05 0.433-0.267 0.9-0.4 1.4-0.4v0c0.533 0 1.017 0.133 1.45 0.4 0.433 0.267 0.65 0.617 0.65 1.05v0 9.6h6.3c0.4 0 0.707 0.167 0.92 0.5 0.22 0.333 0.33 0.717 0.33 1.15v0c0 0.433-0.11 0.807-0.33 1.12-0.213 0.32-0.52 0.48-0.92 0.48v0h-6.3v12.9c0 1.433 0.307 2.44 0.92 3.02 0.62 0.587 1.697 0.88 3.23 0.88v0h1.55c0.6 0 1.05 0.183 1.35 0.55 0.3 0.367 0.45 0.783 0.45 1.25v0c0 0.467-0.15 0.89-0.45 1.27-0.3 0.387-0.75 0.58-1.35 0.58z" fill="#ffd43b" fill-rule="nonzero" stroke="none" stroke-width="1" stroke-linecap="butt" stroke-linejoin="miter" stroke-miterlimit="10" stroke-dasharray="" stroke-dashoffset="0" font-family="none" font-weight="none" font-size="none" text-anchor="none" style="mix-blend-mode: normal" data-fill-palette-color="primary" opacity="1"></path></g></svg></g></svg></g></svg></g></svg></g><g transform="matrix(1,0,0,1,33.54622306208603,0)"><svg viewBox="0 0 330.40515387582786 330.409828009828" height="330.409828009828" width="330.40515387582786"><g><svg xmlns="http://www.w3.org/2000/svg" xmlns:xlink="http://www.w3.org/1999/xlink" version="1.0" x="0" y="0" viewBox="9.99966083705561 9.999911110455857 80.00029631437658 80.00142805248852" enable-background="new 0 0 100 100" xml:space="preserve" height="330.409828009828" width="330.40515387582786" class="icon-icon-0" data-fill-palette-color="accent" id="icon-0"><path d="M86.674 33.332H66.66V13.327c-11.106-4.604-23.04-4.265-33.334 0v20.005h-20c-4.603 11.107-4.264 23.039 0 33.336h20v20.007c11.107 4.603 23.041 4.264 33.334 0V66.668h20.014C91.276 55.558 90.938 43.625 86.674 33.332zM33.326 56.668v3.333H18.053c-1.863-6.563-1.863-13.445 0-20.002h31.94v-6.667h-10V18.055c3.255-0.922 6.614-1.389 10.02-1.389 3.391 0 6.732 0.466 9.98 1.387v25.28c0 1.841-1.494 3.333-3.333 3.333H43.327C37.806 46.667 33.326 51.144 33.326 56.668zM81.946 60.001H49.994v6.667h10v15.279c-3.255 0.921-6.611 1.387-10.019 1.387-3.389 0-6.732-0.466-9.98-1.387V56.668c0-1.844 1.493-3.334 3.333-3.334H56.66c5.521 0 10-4.476 10-10v-3.335h15.286C83.809 46.56 83.809 53.441 81.946 60.001z" fill="#4b8bbe" data-fill-palette-color="accent"></path><circle cx="48.326" cy="25" r="3.3" fill="#4b8bbe" data-fill-palette-color="accent"></circle><circle cx="51.659" cy="75" r="3.3" fill="#4b8bbe" data-fill-palette-color="accent"></circle></svg></g></svg></g><g></g></svg></g><defs></defs></svg><rect width="147.40354762890672" height="200" fill="none" stroke="none" visibility="hidden"></rect></g></svg></g></svg>